<mxfile host="app.diagrams.net" modified="2024-05-06T12:40:31.729Z" agent="Mozilla/5.0 (Windows NT 10.0; Win64; x64) AppleWebKit/537.36 (KHTML, like Gecko) Chrome/124.0.0.0 Safari/537.36" etag="IB6DTDwjEiewaODcBkPs" version="24.3.1" type="device">
  <diagram name="Page-1" id="vj-WcJgXzLhIy-W4kLRI">
    <mxGraphModel dx="794" dy="505" grid="1" gridSize="10" guides="1" tooltips="1" connect="1" arrows="1" fold="1" page="1" pageScale="1" pageWidth="827" pageHeight="1169" math="0" shadow="0">
      <root>
        <mxCell id="0" />
        <mxCell id="1" parent="0" />
        <mxCell id="ownzThEsMmK_FNB4vp_O-1" value="Start" style="ellipse;whiteSpace=wrap;html=1;" parent="1" vertex="1">
          <mxGeometry x="330" y="10" width="100" height="40" as="geometry" />
        </mxCell>
        <mxCell id="ownzThEsMmK_FNB4vp_O-2" value="" style="endArrow=classic;html=1;rounded=0;exitX=0.5;exitY=1;exitDx=0;exitDy=0;" parent="1" source="ownzThEsMmK_FNB4vp_O-1" edge="1">
          <mxGeometry width="50" height="50" relative="1" as="geometry">
            <mxPoint x="380" y="290" as="sourcePoint" />
            <mxPoint x="380" y="120" as="targetPoint" />
          </mxGeometry>
        </mxCell>
        <mxCell id="ownzThEsMmK_FNB4vp_O-3" value="Main Page" style="rounded=0;whiteSpace=wrap;html=1;" parent="1" vertex="1">
          <mxGeometry x="310" y="120" width="140" height="30" as="geometry" />
        </mxCell>
        <mxCell id="ownzThEsMmK_FNB4vp_O-4" value="" style="endArrow=classic;html=1;rounded=0;exitX=0;exitY=0.5;exitDx=0;exitDy=0;" parent="1" source="ownzThEsMmK_FNB4vp_O-3" edge="1">
          <mxGeometry width="50" height="50" relative="1" as="geometry">
            <mxPoint x="380" y="290" as="sourcePoint" />
            <mxPoint x="90" y="190" as="targetPoint" />
            <Array as="points">
              <mxPoint x="90" y="135" />
            </Array>
          </mxGeometry>
        </mxCell>
        <mxCell id="ownzThEsMmK_FNB4vp_O-6" value="" style="endArrow=classic;html=1;rounded=0;exitX=1;exitY=0.5;exitDx=0;exitDy=0;" parent="1" source="ownzThEsMmK_FNB4vp_O-3" edge="1">
          <mxGeometry width="50" height="50" relative="1" as="geometry">
            <mxPoint x="380" y="290" as="sourcePoint" />
            <mxPoint x="730" y="190" as="targetPoint" />
            <Array as="points">
              <mxPoint x="730" y="135" />
            </Array>
          </mxGeometry>
        </mxCell>
        <mxCell id="ownzThEsMmK_FNB4vp_O-8" value="User Login" style="rounded=0;whiteSpace=wrap;html=1;" parent="1" vertex="1">
          <mxGeometry x="30" y="190" width="120" height="30" as="geometry" />
        </mxCell>
        <mxCell id="ownzThEsMmK_FNB4vp_O-9" value="User Sign Up" style="rounded=0;whiteSpace=wrap;html=1;" parent="1" vertex="1">
          <mxGeometry x="660" y="190" width="130" height="30" as="geometry" />
        </mxCell>
        <mxCell id="ownzThEsMmK_FNB4vp_O-10" value="Admin Login" style="rounded=0;whiteSpace=wrap;html=1;" parent="1" vertex="1">
          <mxGeometry x="320" y="210" width="120" height="30" as="geometry" />
        </mxCell>
        <mxCell id="GqK_yRSYYHobmtIPXfuX-1" value="" style="endArrow=classic;html=1;rounded=0;exitX=0.5;exitY=1;exitDx=0;exitDy=0;entryX=0.5;entryY=0;entryDx=0;entryDy=0;" edge="1" parent="1" source="ownzThEsMmK_FNB4vp_O-3" target="ownzThEsMmK_FNB4vp_O-10">
          <mxGeometry width="50" height="50" relative="1" as="geometry">
            <mxPoint x="380" y="290" as="sourcePoint" />
            <mxPoint x="430" y="240" as="targetPoint" />
          </mxGeometry>
        </mxCell>
        <mxCell id="GqK_yRSYYHobmtIPXfuX-2" value="" style="endArrow=classic;html=1;rounded=0;exitX=0.5;exitY=1;exitDx=0;exitDy=0;" edge="1" parent="1" source="ownzThEsMmK_FNB4vp_O-8">
          <mxGeometry width="50" height="50" relative="1" as="geometry">
            <mxPoint x="80" y="230" as="sourcePoint" />
            <mxPoint x="330" y="430" as="targetPoint" />
            <Array as="points">
              <mxPoint x="90" y="430" />
            </Array>
          </mxGeometry>
        </mxCell>
        <mxCell id="GqK_yRSYYHobmtIPXfuX-3" value="Main Menu" style="rounded=0;whiteSpace=wrap;html=1;" vertex="1" parent="1">
          <mxGeometry x="330" y="410" width="100" height="50" as="geometry" />
        </mxCell>
        <mxCell id="GqK_yRSYYHobmtIPXfuX-5" value="" style="endArrow=classic;html=1;rounded=0;exitX=0.569;exitY=1.067;exitDx=0;exitDy=0;exitPerimeter=0;entryX=1;entryY=0.5;entryDx=0;entryDy=0;" edge="1" parent="1" source="ownzThEsMmK_FNB4vp_O-9" target="GqK_yRSYYHobmtIPXfuX-3">
          <mxGeometry width="50" height="50" relative="1" as="geometry">
            <mxPoint x="380" y="430" as="sourcePoint" />
            <mxPoint x="440" y="430" as="targetPoint" />
            <Array as="points">
              <mxPoint x="734" y="430" />
            </Array>
          </mxGeometry>
        </mxCell>
        <mxCell id="GqK_yRSYYHobmtIPXfuX-6" value="" style="endArrow=classic;html=1;rounded=0;exitX=0.5;exitY=1;exitDx=0;exitDy=0;" edge="1" parent="1" source="GqK_yRSYYHobmtIPXfuX-3">
          <mxGeometry width="50" height="50" relative="1" as="geometry">
            <mxPoint x="270" y="430" as="sourcePoint" />
            <mxPoint x="250" y="610" as="targetPoint" />
            <Array as="points">
              <mxPoint x="380" y="560" />
              <mxPoint x="250" y="560" />
            </Array>
          </mxGeometry>
        </mxCell>
        <mxCell id="GqK_yRSYYHobmtIPXfuX-7" value="" style="endArrow=classic;html=1;rounded=0;" edge="1" parent="1">
          <mxGeometry width="50" height="50" relative="1" as="geometry">
            <mxPoint x="380" y="560" as="sourcePoint" />
            <mxPoint x="510" y="610" as="targetPoint" />
            <Array as="points">
              <mxPoint x="510" y="560" />
            </Array>
          </mxGeometry>
        </mxCell>
        <mxCell id="GqK_yRSYYHobmtIPXfuX-8" value="Buy Tabsheet" style="rounded=0;whiteSpace=wrap;html=1;" vertex="1" parent="1">
          <mxGeometry x="210" y="610" width="80" height="40" as="geometry" />
        </mxCell>
        <mxCell id="GqK_yRSYYHobmtIPXfuX-9" value="Sell Tabsheet" style="rounded=0;whiteSpace=wrap;html=1;" vertex="1" parent="1">
          <mxGeometry x="470" y="610" width="90" height="35" as="geometry" />
        </mxCell>
        <mxCell id="GqK_yRSYYHobmtIPXfuX-10" value="" style="endArrow=classic;html=1;rounded=0;exitX=0.5;exitY=1;exitDx=0;exitDy=0;" edge="1" parent="1" source="GqK_yRSYYHobmtIPXfuX-8">
          <mxGeometry width="50" height="50" relative="1" as="geometry">
            <mxPoint x="270" y="720" as="sourcePoint" />
            <mxPoint x="250" y="720" as="targetPoint" />
          </mxGeometry>
        </mxCell>
        <mxCell id="GqK_yRSYYHobmtIPXfuX-11" value="User Input Property Details" style="shape=parallelogram;perimeter=parallelogramPerimeter;whiteSpace=wrap;html=1;fixedSize=1;" vertex="1" parent="1">
          <mxGeometry x="160" y="720" width="180" height="40" as="geometry" />
        </mxCell>
        <mxCell id="GqK_yRSYYHobmtIPXfuX-12" value="User Input Property Details" style="shape=parallelogram;perimeter=parallelogramPerimeter;whiteSpace=wrap;html=1;fixedSize=1;" vertex="1" parent="1">
          <mxGeometry x="450" y="720" width="180" height="40" as="geometry" />
        </mxCell>
        <mxCell id="GqK_yRSYYHobmtIPXfuX-13" value="" style="endArrow=classic;html=1;rounded=0;exitX=0.5;exitY=1;exitDx=0;exitDy=0;" edge="1" parent="1">
          <mxGeometry width="50" height="50" relative="1" as="geometry">
            <mxPoint x="520" y="645" as="sourcePoint" />
            <mxPoint x="520" y="715" as="targetPoint" />
          </mxGeometry>
        </mxCell>
        <mxCell id="GqK_yRSYYHobmtIPXfuX-14" value="" style="endArrow=classic;html=1;rounded=0;exitX=0.5;exitY=1;exitDx=0;exitDy=0;" edge="1" parent="1" source="GqK_yRSYYHobmtIPXfuX-11">
          <mxGeometry width="50" height="50" relative="1" as="geometry">
            <mxPoint x="270" y="720" as="sourcePoint" />
            <mxPoint x="250" y="830" as="targetPoint" />
          </mxGeometry>
        </mxCell>
        <mxCell id="GqK_yRSYYHobmtIPXfuX-16" value="Parallel Arrays" style="shape=hexagon;perimeter=hexagonPerimeter2;whiteSpace=wrap;html=1;fixedSize=1;" vertex="1" parent="1">
          <mxGeometry x="190" y="830" width="120" height="80" as="geometry" />
        </mxCell>
        <mxCell id="GqK_yRSYYHobmtIPXfuX-17" value="" style="endArrow=classic;html=1;rounded=0;exitX=0.5;exitY=1;exitDx=0;exitDy=0;" edge="1" parent="1" source="GqK_yRSYYHobmtIPXfuX-16">
          <mxGeometry width="50" height="50" relative="1" as="geometry">
            <mxPoint x="270" y="820" as="sourcePoint" />
            <mxPoint x="250" y="980" as="targetPoint" />
          </mxGeometry>
        </mxCell>
        <mxCell id="GqK_yRSYYHobmtIPXfuX-18" value="Payment Form" style="rounded=0;whiteSpace=wrap;html=1;" vertex="1" parent="1">
          <mxGeometry x="200" y="980" width="100" height="40" as="geometry" />
        </mxCell>
        <mxCell id="GqK_yRSYYHobmtIPXfuX-19" value="" style="endArrow=classic;html=1;rounded=0;exitX=1;exitY=0.5;exitDx=0;exitDy=0;" edge="1" parent="1" source="GqK_yRSYYHobmtIPXfuX-18">
          <mxGeometry width="50" height="50" relative="1" as="geometry">
            <mxPoint x="270" y="1020" as="sourcePoint" />
            <mxPoint x="360" y="1000" as="targetPoint" />
          </mxGeometry>
        </mxCell>
        <mxCell id="GqK_yRSYYHobmtIPXfuX-21" value="View Receipt" style="rounded=0;whiteSpace=wrap;html=1;" vertex="1" parent="1">
          <mxGeometry x="360" y="980" width="90" height="40" as="geometry" />
        </mxCell>
        <mxCell id="GqK_yRSYYHobmtIPXfuX-22" value="" style="endArrow=classic;html=1;rounded=0;exitX=0.5;exitY=1;exitDx=0;exitDy=0;" edge="1" parent="1" source="GqK_yRSYYHobmtIPXfuX-21">
          <mxGeometry width="50" height="50" relative="1" as="geometry">
            <mxPoint x="260" y="1110" as="sourcePoint" />
            <mxPoint x="405" y="1070" as="targetPoint" />
          </mxGeometry>
        </mxCell>
        <mxCell id="GqK_yRSYYHobmtIPXfuX-23" value="Thank You Page" style="rounded=0;whiteSpace=wrap;html=1;" vertex="1" parent="1">
          <mxGeometry x="350" y="1070" width="100" height="40" as="geometry" />
        </mxCell>
        <mxCell id="GqK_yRSYYHobmtIPXfuX-24" value="" style="endArrow=classic;html=1;rounded=0;" edge="1" parent="1">
          <mxGeometry width="50" height="50" relative="1" as="geometry">
            <mxPoint x="450" y="1090" as="sourcePoint" />
            <mxPoint x="500" y="1090" as="targetPoint" />
          </mxGeometry>
        </mxCell>
        <mxCell id="GqK_yRSYYHobmtIPXfuX-25" value="Database" style="shape=cylinder3;whiteSpace=wrap;html=1;boundedLbl=1;backgroundOutline=1;size=15;" vertex="1" parent="1">
          <mxGeometry x="500" y="1040" width="100" height="80" as="geometry" />
        </mxCell>
        <mxCell id="GqK_yRSYYHobmtIPXfuX-26" value="" style="endArrow=classic;html=1;rounded=0;exitX=0.378;exitY=1.075;exitDx=0;exitDy=0;exitPerimeter=0;" edge="1" parent="1" source="GqK_yRSYYHobmtIPXfuX-12">
          <mxGeometry width="50" height="50" relative="1" as="geometry">
            <mxPoint x="520" y="840" as="sourcePoint" />
            <mxPoint x="518" y="800" as="targetPoint" />
          </mxGeometry>
        </mxCell>
        <mxCell id="GqK_yRSYYHobmtIPXfuX-27" value="View Property Details" style="rounded=0;whiteSpace=wrap;html=1;" vertex="1" parent="1">
          <mxGeometry x="470" y="800" width="100" height="30" as="geometry" />
        </mxCell>
        <mxCell id="GqK_yRSYYHobmtIPXfuX-28" value="" style="endArrow=classic;html=1;rounded=0;exitX=0.5;exitY=1;exitDx=0;exitDy=0;" edge="1" parent="1" source="GqK_yRSYYHobmtIPXfuX-27">
          <mxGeometry width="50" height="50" relative="1" as="geometry">
            <mxPoint x="550" y="890" as="sourcePoint" />
            <mxPoint x="520" y="880" as="targetPoint" />
          </mxGeometry>
        </mxCell>
        <mxCell id="GqK_yRSYYHobmtIPXfuX-29" value="Input Review" style="shape=parallelogram;perimeter=parallelogramPerimeter;whiteSpace=wrap;html=1;fixedSize=1;" vertex="1" parent="1">
          <mxGeometry x="460" y="880" width="120" height="40" as="geometry" />
        </mxCell>
        <mxCell id="GqK_yRSYYHobmtIPXfuX-30" value="" style="endArrow=classic;html=1;rounded=0;exitX=1;exitY=0.5;exitDx=0;exitDy=0;" edge="1" parent="1" source="GqK_yRSYYHobmtIPXfuX-29">
          <mxGeometry width="50" height="50" relative="1" as="geometry">
            <mxPoint x="610" y="960" as="sourcePoint" />
            <mxPoint x="660" y="900" as="targetPoint" />
          </mxGeometry>
        </mxCell>
        <mxCell id="GqK_yRSYYHobmtIPXfuX-31" value="Review.txt" style="shape=cylinder3;whiteSpace=wrap;html=1;boundedLbl=1;backgroundOutline=1;size=15;" vertex="1" parent="1">
          <mxGeometry x="660" y="860" width="110" height="80" as="geometry" />
        </mxCell>
        <mxCell id="GqK_yRSYYHobmtIPXfuX-32" value="" style="endArrow=classic;html=1;rounded=0;exitX=0.5;exitY=1;exitDx=0;exitDy=0;exitPerimeter=0;" edge="1" parent="1" source="GqK_yRSYYHobmtIPXfuX-31" target="GqK_yRSYYHobmtIPXfuX-25">
          <mxGeometry width="50" height="50" relative="1" as="geometry">
            <mxPoint x="720" y="1040" as="sourcePoint" />
            <mxPoint x="715" y="1090" as="targetPoint" />
            <Array as="points">
              <mxPoint x="715" y="1080" />
            </Array>
          </mxGeometry>
        </mxCell>
        <mxCell id="GqK_yRSYYHobmtIPXfuX-33" value="" style="endArrow=classic;html=1;rounded=0;exitX=0.5;exitY=1;exitDx=0;exitDy=0;" edge="1" parent="1" source="ownzThEsMmK_FNB4vp_O-10">
          <mxGeometry width="50" height="50" relative="1" as="geometry">
            <mxPoint x="390" y="330" as="sourcePoint" />
            <mxPoint x="380" y="280" as="targetPoint" />
          </mxGeometry>
        </mxCell>
        <mxCell id="GqK_yRSYYHobmtIPXfuX-34" value="Admin Main Menu" style="rounded=0;whiteSpace=wrap;html=1;" vertex="1" parent="1">
          <mxGeometry x="335" y="280" width="90" height="30" as="geometry" />
        </mxCell>
        <mxCell id="GqK_yRSYYHobmtIPXfuX-35" value="" style="endArrow=classic;html=1;rounded=0;exitX=1;exitY=0.5;exitDx=0;exitDy=0;" edge="1" parent="1" source="GqK_yRSYYHobmtIPXfuX-34">
          <mxGeometry width="50" height="50" relative="1" as="geometry">
            <mxPoint x="520" y="370" as="sourcePoint" />
            <mxPoint x="510" y="295" as="targetPoint" />
          </mxGeometry>
        </mxCell>
        <mxCell id="GqK_yRSYYHobmtIPXfuX-36" value="Manage Properties" style="rounded=0;whiteSpace=wrap;html=1;" vertex="1" parent="1">
          <mxGeometry x="510" y="277.5" width="130" height="35" as="geometry" />
        </mxCell>
        <mxCell id="GqK_yRSYYHobmtIPXfuX-38" value="View Reviews" style="rounded=0;whiteSpace=wrap;html=1;" vertex="1" parent="1">
          <mxGeometry x="630" y="470" width="120" height="30" as="geometry" />
        </mxCell>
        <mxCell id="GqK_yRSYYHobmtIPXfuX-39" value="" style="endArrow=classic;html=1;rounded=0;exitX=0.5;exitY=1;exitDx=0;exitDy=0;entryX=0.354;entryY=-0.133;entryDx=0;entryDy=0;entryPerimeter=0;" edge="1" parent="1" source="GqK_yRSYYHobmtIPXfuX-34" target="GqK_yRSYYHobmtIPXfuX-38">
          <mxGeometry width="50" height="50" relative="1" as="geometry">
            <mxPoint x="410" y="380" as="sourcePoint" />
            <mxPoint x="680" y="360" as="targetPoint" />
            <Array as="points">
              <mxPoint x="380" y="360" />
              <mxPoint x="670" y="360" />
            </Array>
          </mxGeometry>
        </mxCell>
        <mxCell id="GqK_yRSYYHobmtIPXfuX-40" value="" style="endArrow=classic;html=1;rounded=0;exitX=0.404;exitY=1.2;exitDx=0;exitDy=0;exitPerimeter=0;entryX=0.232;entryY=-0.019;entryDx=0;entryDy=0;entryPerimeter=0;" edge="1" parent="1" source="GqK_yRSYYHobmtIPXfuX-38" target="GqK_yRSYYHobmtIPXfuX-31">
          <mxGeometry width="50" height="50" relative="1" as="geometry">
            <mxPoint x="680" y="750" as="sourcePoint" />
            <mxPoint x="730" y="700" as="targetPoint" />
          </mxGeometry>
        </mxCell>
        <mxCell id="GqK_yRSYYHobmtIPXfuX-41" value="" style="endArrow=classic;html=1;rounded=0;exitX=1;exitY=0.5;exitDx=0;exitDy=0;entryX=0.7;entryY=1.013;entryDx=0;entryDy=0;entryPerimeter=0;" edge="1" parent="1" source="GqK_yRSYYHobmtIPXfuX-36" target="GqK_yRSYYHobmtIPXfuX-25">
          <mxGeometry width="50" height="50" relative="1" as="geometry">
            <mxPoint x="670" y="310" as="sourcePoint" />
            <mxPoint x="570" y="1130" as="targetPoint" />
            <Array as="points">
              <mxPoint x="810" y="290" />
              <mxPoint x="800" y="1140" />
              <mxPoint x="570" y="1140" />
            </Array>
          </mxGeometry>
        </mxCell>
        <mxCell id="GqK_yRSYYHobmtIPXfuX-42" value="" style="endArrow=classic;html=1;rounded=0;exitX=0.5;exitY=0;exitDx=0;exitDy=0;entryX=0.5;entryY=1;entryDx=0;entryDy=0;" edge="1" parent="1" source="GqK_yRSYYHobmtIPXfuX-3" target="GqK_yRSYYHobmtIPXfuX-43">
          <mxGeometry width="50" height="50" relative="1" as="geometry">
            <mxPoint x="290" y="390" as="sourcePoint" />
            <mxPoint x="240" y="360" as="targetPoint" />
            <Array as="points">
              <mxPoint x="380" y="380" />
              <mxPoint x="240" y="380" />
            </Array>
          </mxGeometry>
        </mxCell>
        <mxCell id="GqK_yRSYYHobmtIPXfuX-43" value="Customer Service" style="rounded=0;whiteSpace=wrap;html=1;" vertex="1" parent="1">
          <mxGeometry x="180" y="290" width="120" height="60" as="geometry" />
        </mxCell>
        <mxCell id="GqK_yRSYYHobmtIPXfuX-44" value="" style="endArrow=classic;html=1;rounded=0;exitX=0.5;exitY=0;exitDx=0;exitDy=0;" edge="1" parent="1" source="GqK_yRSYYHobmtIPXfuX-43">
          <mxGeometry width="50" height="50" relative="1" as="geometry">
            <mxPoint x="200" y="270" as="sourcePoint" />
            <mxPoint x="240" y="250" as="targetPoint" />
          </mxGeometry>
        </mxCell>
        <mxCell id="GqK_yRSYYHobmtIPXfuX-45" value="Customer Service.txt" style="shape=cylinder3;whiteSpace=wrap;html=1;boundedLbl=1;backgroundOutline=1;size=15;" vertex="1" parent="1">
          <mxGeometry x="190" y="180" width="90" height="80" as="geometry" />
        </mxCell>
        <mxCell id="GqK_yRSYYHobmtIPXfuX-47" value="" style="endArrow=classic;html=1;rounded=0;exitX=0.75;exitY=0;exitDx=0;exitDy=0;" edge="1" parent="1" source="GqK_yRSYYHobmtIPXfuX-34">
          <mxGeometry width="50" height="50" relative="1" as="geometry">
            <mxPoint x="500" y="220" as="sourcePoint" />
            <mxPoint x="580" y="210" as="targetPoint" />
            <Array as="points">
              <mxPoint x="400" y="250" />
              <mxPoint x="580" y="250" />
            </Array>
          </mxGeometry>
        </mxCell>
        <mxCell id="GqK_yRSYYHobmtIPXfuX-48" value="View Customer Service" style="rounded=0;whiteSpace=wrap;html=1;" vertex="1" parent="1">
          <mxGeometry x="520" y="150" width="120" height="60" as="geometry" />
        </mxCell>
        <mxCell id="GqK_yRSYYHobmtIPXfuX-49" value="" style="endArrow=classic;html=1;rounded=0;exitX=-0.012;exitY=0.617;exitDx=0;exitDy=0;entryX=0.972;entryY=0.075;entryDx=0;entryDy=0;entryPerimeter=0;exitPerimeter=0;" edge="1" parent="1" source="GqK_yRSYYHobmtIPXfuX-48" target="GqK_yRSYYHobmtIPXfuX-45">
          <mxGeometry width="50" height="50" relative="1" as="geometry">
            <mxPoint x="460" y="190" as="sourcePoint" />
            <mxPoint x="510" y="140" as="targetPoint" />
          </mxGeometry>
        </mxCell>
        <mxCell id="GqK_yRSYYHobmtIPXfuX-50" value="" style="endArrow=classic;html=1;rounded=0;exitX=0.5;exitY=1;exitDx=0;exitDy=0;exitPerimeter=0;" edge="1" parent="1" source="GqK_yRSYYHobmtIPXfuX-25">
          <mxGeometry width="50" height="50" relative="1" as="geometry">
            <mxPoint x="250" y="1130" as="sourcePoint" />
            <mxPoint x="550" y="1150" as="targetPoint" />
          </mxGeometry>
        </mxCell>
        <mxCell id="GqK_yRSYYHobmtIPXfuX-51" value="End" style="ellipse;whiteSpace=wrap;html=1;" vertex="1" parent="1">
          <mxGeometry x="525" y="1149" width="50" height="20" as="geometry" />
        </mxCell>
      </root>
    </mxGraphModel>
  </diagram>
</mxfile>
